<?xml version="1.0" encoding="utf-8"?>
<!-- Generator: Adobe Illustrator 27.8.0, SVG Export Plug-In . SVG Version: 6.00 Build 0)  -->
<svg version="1.1" id="Ebene_3" xmlns="http://www.w3.org/2000/svg" xmlns:xlink="http://www.w3.org/1999/xlink" x="0px" y="0px"
	 viewBox="0 0 305.4 76.1" style="enable-background:new 0 0 305.4 76.1;" xml:space="preserve">
<style type="text/css">
	.st0{fill-rule:evenodd;clip-rule:evenodd;fill:#38B4EA;}
	.st1{fill-rule:evenodd;clip-rule:evenodd;}
</style>
<g>
	<path class="st0" d="M121.9,23.7c-4.8,0-9.2,1.9-12.4,5c0.7-0.2,1.4-0.3,2.1-0.3c3.9,0,7,3.1,7,7c0,3.9-3.1,7-7,7
		c-3.6,0-6.5-2.6-6.9-6.1c-0.6,1.7-0.9,3.6-0.9,5.5c0,10,8.1,18.1,18.1,18.1c10,0,18.1-8.1,18.1-18.1
		C140.1,31.8,131.9,23.7,121.9,23.7z"/>
	<g>
		<g>
			<path d="M121.6,75.7c-5.2,0-10.1-1-14.6-3c-4.5-2-8.5-4.7-11.9-8.1c-3.4-3.4-6.1-7.4-8.1-11.9c-2-4.5-3-9.5-3-14.6
				c0-5.2,1-10.1,3-14.6c2-4.5,4.7-8.5,8.1-11.9c3.4-3.4,7.4-6.1,11.9-8.1c4.5-2,9.5-3,14.6-3c5.2,0,10.1,1,14.6,3
				c4.5,2,8.5,4.7,11.9,8.1c3.4,3.4,6.1,7.4,8.1,11.9c2,4.5,3,9.5,3,14.6c0,5.2-1,10.1-3,14.6c-2,4.5-4.7,8.5-8.1,11.9
				c-3.4,3.4-7.4,6.1-11.9,8.1C131.7,74.7,126.8,75.7,121.6,75.7z M121.6,11.1c-3.7,0-7.3,0.7-10.5,2.1c-3.3,1.4-6.2,3.4-8.6,5.8
				c-2.4,2.4-4.4,5.3-5.8,8.6c-1.4,3.3-2.1,6.8-2.1,10.5c0,3.7,0.7,7.3,2.1,10.5c1.4,3.3,3.4,6.2,5.8,8.6c2.4,2.4,5.3,4.4,8.6,5.8
				c3.3,1.4,6.8,2.1,10.5,2.1c3.7,0,7.2-0.7,10.5-2.1s6.2-3.3,8.6-5.8c2.4-2.4,4.4-5.3,5.8-8.6c1.4-3.3,2.1-6.8,2.1-10.5
				c0-3.7-0.7-7.2-2.1-10.5c-1.4-3.3-3.4-6.2-5.8-8.6c-2.4-2.4-5.3-4.3-8.6-5.8C128.8,11.8,125.3,11.1,121.6,11.1z"/>
		</g>
	</g>
	<path class="st1" d="M121.9,30.7c-1.6,0-3.1,0.3-4.4,0.9c0.7,1.1,1.1,2.4,1.1,3.7c0,3.9-3.1,7-7,7c-0.3,0-0.5,0-0.8,0
		c0.3,5.9,5.1,10.7,11.1,10.7c6.2,0,11.1-5,11.1-11.1S128.1,30.7,121.9,30.7z"/>
</g>
<g>
	<path d="M202.7,75.5c-5.2,0-10.1-1-14.6-3c-4.5-2-8.5-4.7-11.9-8.1c-3.4-3.4-6.1-7.4-8.1-11.9c-2-4.5-3-9.5-3-14.6
		c0-5.2,1-10.1,3-14.6c2-4.5,4.7-8.5,8.1-11.9c3.4-3.4,7.4-6.1,11.9-8.1c4.5-2,9.5-3,14.6-3c5.7,0,11,1.2,15.8,3.5
		c3.3,1.6,6.3,3.5,8.9,5.9c1.1,1,1.7,2.4,1.7,3.8c0,1.5-0.7,3-1.8,4c-2,1.7-4.9,1.7-7-0.1c-1.9-1.6-4-3-6.3-4.1
		c-3.5-1.6-7.3-2.5-11.4-2.5c-3.7,0-7.3,0.7-10.5,2.1c-3.3,1.4-6.2,3.4-8.6,5.8c-2.4,2.4-4.4,5.3-5.8,8.6s-2.1,6.8-2.1,10.5
		c0,3.7,0.7,7.3,2.1,10.5c1.4,3.3,3.3,6.2,5.8,8.6c2.4,2.4,5.3,4.4,8.6,5.8c3.3,1.4,6.8,2.1,10.5,2.1c4.1,0,7.9-0.8,11.4-2.5
		c2.3-1.1,4.4-2.4,6.2-4c2.1-1.8,5-1.8,7,0l-0.5,0.6l0.5-0.6c1.2,1,1.8,2.5,1.8,4c0,1.5-0.6,2.9-1.7,3.8c-2.6,2.3-5.6,4.2-8.9,5.8
		C213.7,74.3,208.4,75.5,202.7,75.5z"/>
</g>
<g>
	<path d="M267.9,75.5c-5.2,0-10.1-1-14.6-3c-4.5-2-8.5-4.7-11.9-8.1c-3.4-3.4-6.1-7.4-8.1-11.9c-2-4.5-3-9.4-3-14.6
		c0-5.2,1-10.1,3-14.6c2-4.5,4.7-8.5,8.1-11.9c3.4-3.4,7.4-6.1,11.9-8.1c4.5-2,9.5-3,14.6-3c5.2,0,10.1,1,14.6,3
		c4.5,2,8.5,4.7,11.9,8.1c3.4,3.4,6.1,7.4,8.1,11.9c2,4.5,3,9.5,3,14.6c0,5.2-1,10.1-3,14.6c-2,4.5-4.7,8.5-8.1,11.9
		c-3.4,3.4-7.4,6.1-11.9,8.1C278,74.5,273.1,75.5,267.9,75.5z M267.9,10.9c-3.7,0-7.3,0.7-10.5,2.1c-3.3,1.4-6.2,3.4-8.6,5.8
		c-2.4,2.4-4.4,5.3-5.8,8.6c-1.4,3.3-2.1,6.8-2.1,10.5c0,3.7,0.7,7.3,2.1,10.5c1.4,3.3,3.4,6.2,5.8,8.6c2.4,2.4,5.3,4.4,8.6,5.8
		c3.3,1.4,6.8,2.1,10.5,2.1c3.7,0,7.2-0.7,10.5-2.1c3.3-1.4,6.2-3.3,8.6-5.8c2.4-2.4,4.4-5.3,5.8-8.6c1.4-3.3,2.1-6.8,2.1-10.5
		c0-3.7-0.7-7.2-2.1-10.5c-1.4-3.3-3.4-6.2-5.8-8.6c-2.4-2.4-5.3-4.3-8.6-5.8C275.1,11.6,271.6,10.9,267.9,10.9z"/>
</g>
<g>
	<path d="M74.3,75.9h-1.6c-2.4,0-4.4-2-4.4-4.4l-2-49.9c0-1.5-0.3-2.9-0.9-4.2c-0.6-1.3-1.4-2.5-2.4-3.5c-1-1-2.2-1.8-3.5-2.4
		c-2.6-1.1-5.8-1.2-8.5,0c-1.3,0.6-2.5,1.3-3.5,2.3c-1,1-1.8,2.2-2.4,3.5c-0.6,1.3-0.9,2.8-0.9,4.3L44.3,47c0,1.9-0.8,3.2-2.3,3.9
		c-1.3,0.6-3.8,0.6-5.4,0c-1-0.4-2.6-2-2.6-3.8l0-25.8c0-1.5-0.3-2.9-0.9-4.1c-0.6-1.3-1.4-2.4-2.4-3.4c-1-1-2.2-1.8-3.5-2.3
		c-2.6-1.1-5.8-1.1-8.4,0c-1.4,0.6-2.5,1.4-3.5,2.4c-1,1-1.8,2.2-2.4,3.5c-0.6,1.3-0.9,2.8-0.9,4.3l-1.8,49.8c0,2.4-2,4.4-4.4,4.4
		H4.4c-2.4,0-4.4-2-4.4-4.4l1.8-49.8c0-3,0.6-5.8,1.7-8.4c1.1-2.6,2.6-4.9,4.6-6.8C10,4.6,12.2,3.1,14.8,2c2.6-1.1,5.4-1.7,8.3-1.7
		c3.4,0,6.6,0.7,9.5,2.2c1.7,0.9,3.3,1.9,4.7,3.2c1.2,1.1,2.9,1.1,4.1,0c1.4-1.2,2.9-2.3,4.6-3.2c2.8-1.5,6-2.2,9.4-2.2
		c2.9,0,5.7,0.6,8.3,1.7c2.6,1.1,4.9,2.6,6.8,4.6c1.9,1.9,3.5,4.2,4.6,6.8c1.1,2.6,1.7,5.4,1.7,8.3l2,49.9
		C78.7,73.9,76.7,75.9,74.3,75.9z"/>
</g>
</svg>
